<svg width="200" height="200" viewBox="0 0 200 200" fill="none" xmlns="http://www.w3.org/2000/svg">
<path d="M100 200C155.228 200 200 155.228 200 100C200 44.7715 155.228 0 100 0C44.7715 0 0 44.7715 0 100C0 155.228 44.7715 200 100 200Z" fill="#89CEF4"/>
<path d="M149.979 43.6333H50.0622V164.745H149.979V43.6333Z" fill="#324A5E"/>
<path d="M59.8507 52.6338V149.233H120.987V130.071H140.149V52.6338H59.8507Z" fill="white"/>
<path d="M120.987 149.233L140.149 130.071H120.987V149.233Z" fill="#E6E9EE"/>
<path d="M112.277 38.4073C111.987 31.854 106.595 26.628 100 26.628C93.4052 26.628 88.0133 31.854 87.7229 38.4073H70.842V57.9428H129.2V38.4073H112.277Z" fill="#FFE1BE"/>
<path d="M129 75H85V82H129V75Z" fill="#E6E9EE"/>
<path d="M129 91H85V98H129V91Z" fill="#E6E9EE"/>
<path d="M129 107H85V114H129V107Z" fill="#E6E9EE"/>
<path d="M65.5 92L70.5 96.5L78 87.5" stroke="#E6E9EE" stroke-width="3"/>
<path d="M66 77.5L71 82L78.5 73" stroke="#E6E9EE" stroke-width="3"/>
<path d="M66 108.5L71 113L78.5 104" stroke="#E6E9EE" stroke-width="3"/>
</svg>
